<svg id="visual" viewBox="0 0 960 540" width="960" height="540" xmlns="http://www.w3.org/2000/svg" xmlns:xlink="http://www.w3.org/1999/xlink" version="1.1"><rect width="960" height="540" fill="#1e1e1e"></rect><g><g transform="translate(16 171)"><path d="M0 -144L112.6 -89.8L140.4 32L62.5 129.8L-62.5 129.8L-140.4 32L-112.6 -89.8Z" stroke="#454449" fill="none" stroke-width="2"></path></g><g transform="translate(358 374)"><path d="M0 -121L94.6 -75.4L118 26.9L52.5 109L-52.5 109L-118 26.9L-94.6 -75.4Z" stroke="#454449" fill="none" stroke-width="2"></path></g><g transform="translate(748 104)"><path d="M0 -105L82.1 -65.5L102.4 23.4L45.6 94.6L-45.6 94.6L-102.4 23.4L-82.1 -65.5Z" stroke="#454449" fill="none" stroke-width="2"></path></g><g transform="translate(958 358)"><path d="M0 -85L66.5 -53L82.9 18.9L36.9 76.6L-36.9 76.6L-82.9 18.9L-66.5 -53Z" stroke="#454449" fill="none" stroke-width="2"></path></g></g></svg>