<svg id="visual" viewBox="0 0 960 540" width="960" height="540" xmlns="http://www.w3.org/2000/svg" xmlns:xlink="http://www.w3.org/1999/xlink" version="1.1"><rect width="960" height="540" fill="#6B6A6F"></rect><g><g transform="translate(586 429)"><path d="M0 -144L112.6 -89.8L140.4 32L62.5 129.8L-62.5 129.8L-140.4 32L-112.6 -89.8Z" stroke="#454449" fill="none" stroke-width="2"></path></g><g transform="translate(83 413)"><path d="M0 -115L89.9 -71.7L112.1 25.6L49.9 103.6L-49.9 103.6L-112.1 25.6L-89.9 -71.7Z" stroke="#454449" fill="none" stroke-width="2"></path></g><g transform="translate(265 85)"><path d="M0 -97L75.8 -60.5L94.6 21.6L42.1 87.4L-42.1 87.4L-94.6 21.6L-75.8 -60.5Z" stroke="#454449" fill="none" stroke-width="2"></path></g><g transform="translate(806 23)"><path d="M0 -129L100.9 -80.4L125.8 28.7L56 116.2L-56 116.2L-125.8 28.7L-100.9 -80.4Z" stroke="#454449" fill="none" stroke-width="2"></path></g></g></svg>