<svg id="visual" viewBox="0 0 960 540" width="960" height="540" xmlns="http://www.w3.org/2000/svg" xmlns:xlink="http://www.w3.org/1999/xlink" version="1.1"><rect x="0" y="0" width="960" height="540" fill="#454449"></rect><path d="M0 336L137 360L274 364L411 353L549 385L686 345L823 389L960 398L960 541L823 541L686 541L549 541L411 541L274 541L137 541L0 541Z" fill="#6b6a6f"></path><path d="M0 373L137 405L274 378L411 376L549 411L686 371L823 429L960 375L960 541L823 541L686 541L549 541L411 541L274 541L137 541L0 541Z" fill="#82838d"></path><path d="M0 432L137 413L274 401L411 437L549 455L686 452L823 396L960 404L960 541L823 541L686 541L549 541L411 541L274 541L137 541L0 541Z" fill="#979eac"></path><path d="M0 441L137 457L274 454L411 454L549 477L686 477L823 432L960 451L960 541L823 541L686 541L549 541L411 541L274 541L137 541L0 541Z" fill="#aabacc"></path><path d="M0 515L137 490L274 482L411 482L549 504L686 490L823 505L960 473L960 541L823 541L686 541L549 541L411 541L274 541L137 541L0 541Z" fill="#bbd7ec"></path></svg>